<?xml version="1.0" encoding="utf-8"?>
<!-- Generator: Adobe Illustrator 13.0.0, SVG Export Plug-In . SVG Version: 6.00 Build 14948)  -->
<!DOCTYPE svg PUBLIC "-//W3C//DTD SVG 1.1//EN" "http://www.w3.org/Graphics/SVG/1.1/DTD/svg11.dtd">
<svg version="1.1" id="Capa_1" xmlns="http://www.w3.org/2000/svg" xmlns:xlink="http://www.w3.org/1999/xlink" x="0px" y="0px"
	 width="50px" height="50px" viewBox="0 0 50 50" enable-background="new 0 0 50 50" xml:space="preserve">
<g>
	<g>
		<g>
			<path fill="#6F8793" d="M14.174,23.332h-8.34C5.373,23.332,5,23.706,5,24.166v20.018c0,0.461,0.374,0.834,0.834,0.834h8.34
				c0.46,0,0.834-0.373,0.834-0.834V24.166C15.008,23.706,14.636,23.332,14.174,23.332z"/>
		</g>
	</g>
	<g>
		<g>
			<path fill="#6F8793" d="M29.152,4.983h-8.339c-0.46,0-0.834,0.374-0.834,0.834v38.367c0,0.461,0.374,0.834,0.834,0.834h8.339
				c0.461,0,0.834-0.373,0.834-0.834V5.817C29.986,5.357,29.613,4.983,29.152,4.983z"/>
		</g>
	</g>
	<g>
		<g>
			<path fill="#6F8793" d="M44.166,13.323h-8.34c-0.461,0-0.835,0.374-0.835,0.834v30.026c0,0.459,0.374,0.832,0.835,0.832h8.34
				c0.461,0,0.834-0.373,0.834-0.832V14.158C45,13.697,44.627,13.323,44.166,13.323z"/>
		</g>
	</g>
</g>
</svg>
