<?xml version="1.0" encoding="utf-8"?>
<!-- Generator: Adobe Illustrator 13.0.0, SVG Export Plug-In . SVG Version: 6.00 Build 14948)  -->
<!DOCTYPE svg PUBLIC "-//W3C//DTD SVG 1.1//EN" "http://www.w3.org/Graphics/SVG/1.1/DTD/svg11.dtd">
<svg version="1.1" id="Capa_1" xmlns="http://www.w3.org/2000/svg" xmlns:xlink="http://www.w3.org/1999/xlink" x="0px" y="0px"
	 width="50px" height="50px" viewBox="0 0 50 50" enable-background="new 0 0 50 50" xml:space="preserve">
<g>
	<g>
		<path fill="#6F8793" d="M47.727,27.273c-0.682,0-1.136,0.453-1.136,1.136v14.772c0,0.682-0.454,1.137-1.136,1.137H4.545
			c-0.682,0-1.136-0.455-1.136-1.137V28.409c0-0.683-0.455-1.136-1.136-1.136c-0.682,0-1.137,0.453-1.137,1.136v14.772
			c0,1.932,1.479,3.408,3.409,3.408h40.91c1.932,0,3.408-1.479,3.408-3.408V28.409C48.863,27.727,48.409,27.273,47.727,27.273z"/>
	</g>
</g>
<g>
	<g>
		<path fill="#6F8793" d="M46.591,11.364H3.409C1.477,11.364,0,12.841,0,14.773v7.272C0,23.636,1.136,25,2.614,25.341l17.841,3.978
			v3.638c0,0.683,0.455,1.136,1.136,1.136h6.818c0.682,0,1.136-0.453,1.136-1.136v-3.638l17.842-3.978
			C48.863,25,50,23.636,50,22.045v-7.273C50,12.841,48.523,11.364,46.591,11.364z M27.273,31.818h-4.546v-4.545h4.546V31.818z
			 M47.727,22.045c0,0.568-0.34,1.023-0.908,1.136l-17.272,3.863v-0.908c0-0.682-0.454-1.137-1.136-1.137h-6.818
			c-0.682,0-1.136,0.455-1.136,1.137v0.908L3.182,23.182c-0.568-0.113-0.909-0.568-0.909-1.136v-7.272
			c0-0.682,0.455-1.137,1.136-1.137h43.182c0.683,0,1.136,0.455,1.136,1.137V22.045z"/>
	</g>
</g>
<g>
	<g>
		<path fill="#6F8793" d="M30.682,3.409H19.318c-1.932,0-3.409,1.477-3.409,3.409v1.136c0,0.682,0.455,1.136,1.136,1.136
			c0.681,0,1.136-0.455,1.136-1.136V6.818c0-0.682,0.455-1.137,1.136-1.137h11.365c0.682,0,1.137,0.455,1.137,1.137v1.136
			c0,0.682,0.453,1.136,1.137,1.136c0.682,0,1.136-0.455,1.136-1.136V6.818C34.091,4.886,32.613,3.409,30.682,3.409z"/>
	</g>
</g>
</svg>
