<?xml version="1.0" encoding="utf-8"?>
<!-- Generator: Adobe Illustrator 13.0.0, SVG Export Plug-In . SVG Version: 6.00 Build 14948)  -->
<!DOCTYPE svg PUBLIC "-//W3C//DTD SVG 1.1//EN" "http://www.w3.org/Graphics/SVG/1.1/DTD/svg11.dtd">
<svg version="1.1" id="Capa_1" xmlns="http://www.w3.org/2000/svg" xmlns:xlink="http://www.w3.org/1999/xlink" x="0px" y="0px"
	 width="50px" height="50px" viewBox="0 0 50 50" enable-background="new 0 0 50 50" xml:space="preserve">
<g>
	<g>
		<g>
			<path fill="#6F8793" d="M46.203,33.625c0.992,0,1.797-0.805,1.797-1.797V12.781c0-3.963-3.225-7.188-7.188-7.188h-2.336V3.797
				C38.477,2.804,37.672,2,36.68,2s-1.797,0.804-1.797,1.797v1.797h-8.176V3.797C26.707,2.804,25.902,2,24.91,2
				c-0.993,0-1.797,0.804-1.797,1.797v1.797h-8.086V3.797C15.027,2.804,14.223,2,13.23,2s-1.797,0.804-1.797,1.797v1.797H9.188
				C5.225,5.594,2,8.818,2,12.781v28.031C2,44.775,5.225,48,9.188,48h31.625C44.775,48,48,44.775,48,40.813
				c0-0.992-0.805-1.797-1.797-1.797s-1.797,0.805-1.797,1.797c0,1.982-1.611,3.595-3.594,3.595H9.188
				c-1.982,0-3.594-1.611-3.594-3.595V12.781c0-1.982,1.612-3.594,3.594-3.594h2.246v1.797c0,0.993,0.804,1.797,1.797,1.797
				s1.797-0.804,1.797-1.797V9.188h8.086v1.797c0,0.993,0.804,1.797,1.797,1.797c0.991,0,1.797-0.804,1.797-1.797V9.188h8.176v1.797
				c0,0.993,0.806,1.797,1.798,1.797c0.991,0,1.797-0.804,1.797-1.797V9.188h2.336c1.981,0,3.594,1.612,3.594,3.594v19.047
				C44.406,32.82,45.211,33.625,46.203,33.625z"/>
		</g>
	</g>
	<g>
		<g>
			<circle fill="#6F8793" cx="13.23" cy="20.867" r="1.797"/>
		</g>
	</g>
	<g>
		<g>
			<circle fill="#6F8793" cx="28.863" cy="20.867" r="1.797"/>
		</g>
	</g>
	<g>
		<g>
			<circle fill="#6F8793" cx="36.68" cy="20.867" r="1.797"/>
		</g>
	</g>
	<g>
		<g>
			<circle fill="#6F8793" cx="13.23" cy="28.684" r="1.797"/>
		</g>
	</g>
	<g>
		<g>
			<circle fill="#6F8793" cx="13.23" cy="36.5" r="1.797"/>
		</g>
	</g>
	<g>
		<g>
			<circle fill="#6F8793" cx="21.047" cy="20.867" r="1.797"/>
		</g>
	</g>
	<g>
		<g>
			<circle fill="#6F8793" cx="21.047" cy="28.684" r="1.797"/>
		</g>
	</g>
	<g>
		<g>
			<circle fill="#6F8793" cx="21.047" cy="36.5" r="1.797"/>
		</g>
	</g>
	<g>
		<g>
			<circle fill="#6F8793" cx="28.863" cy="28.684" r="1.797"/>
		</g>
	</g>
	<g>
		<g>
			<circle fill="#6F8793" cx="36.68" cy="28.684" r="1.797"/>
		</g>
	</g>
	<g>
		<g>
			<circle fill="#6F8793" cx="28.863" cy="36.5" r="1.797"/>
		</g>
	</g>
</g>
</svg>
