<?xml version="1.0" encoding="utf-8"?>
<!-- Generator: Adobe Illustrator 13.0.0, SVG Export Plug-In . SVG Version: 6.00 Build 14948)  -->
<!DOCTYPE svg PUBLIC "-//W3C//DTD SVG 1.1//EN" "http://www.w3.org/Graphics/SVG/1.1/DTD/svg11.dtd">
<svg version="1.1" id="Capa_1" xmlns="http://www.w3.org/2000/svg" xmlns:xlink="http://www.w3.org/1999/xlink" x="0px" y="0px"
	 width="50px" height="50px" viewBox="0 0 50 50" enable-background="new 0 0 50 50" xml:space="preserve">
<g>
	<g>
		<g>
			<path fill="#6F8793" d="M42.494,12.632c-0.664-0.664-1.705-0.761-2.48-0.233c-2.923,1.992-17.582,12.009-19.157,13.583
				c-2.285,2.285-2.285,6.002,0,8.287c1.142,1.143,2.643,1.713,4.143,1.713s3.001-0.57,4.145-1.713
				c1.574-1.574,11.592-16.233,13.584-19.157C43.256,14.338,43.158,13.296,42.494,12.632z M26.381,31.508
				c-0.762,0.762-2,0.762-2.762,0c-0.762-0.762-0.762-2,0-2.762c0.612-0.605,4.773-3.573,9.895-7.132
				C29.954,26.734,26.986,30.896,26.381,31.508z"/>
			<path fill="#6F8793" d="M9.007,39.211l-2.411,1.176c-1.764-3.147-2.689-6.662-2.689-10.26c0-2.636,0.486-5.161,1.373-7.489
				l2.763,1.325c0.272,0.131,0.56,0.193,0.843,0.193c0.729,0,1.427-0.409,1.763-1.109c0.466-0.973,0.056-2.14-0.917-2.606
				l-2.728-1.309c3.39-5.529,9.256-9.384,16.043-10.01v2.938c0,1.079,0.875,1.953,1.953,1.953s1.953-0.875,1.953-1.953V9.121
				c2.326,0.212,4.578,0.805,6.716,1.77c0.983,0.444,2.14,0.006,2.584-0.977s0.007-2.14-0.978-2.584
				C32.037,5.868,28.58,5.127,25,5.127c-6.678,0-12.956,2.6-17.678,7.322C2.601,17.171,0,23.449,0,30.127
				c0,4.936,1.465,9.734,4.236,13.879c0.373,0.559,0.99,0.867,1.625,0.867c0.289,0,0.581-0.064,0.855-0.197l4.004-1.953
				c0.969-0.474,1.372-1.643,0.899-2.611C11.146,39.141,9.977,38.738,9.007,39.211z"/>
			<path fill="#6F8793" d="M47.797,19.851c-0.443-0.983-1.602-1.42-2.584-0.977s-1.42,1.601-0.977,2.584
				c1.231,2.73,1.856,5.647,1.856,8.669c0,3.604-0.928,7.123-2.696,10.275l-2.519-1.199c-0.976-0.463-2.14-0.051-2.604,0.924
				c-0.463,0.975-0.049,2.141,0.925,2.604l4.102,1.953c0.271,0.129,0.558,0.189,0.839,0.189c0.635,0,1.252-0.311,1.625-0.867
				C48.535,39.861,50,35.063,50,30.127C50,26.547,49.259,23.089,47.797,19.851z"/>
		</g>
	</g>
</g>
</svg>
