<?xml version="1.0" encoding="utf-8"?>
<!-- Generator: Adobe Illustrator 13.0.0, SVG Export Plug-In . SVG Version: 6.00 Build 14948)  -->
<!DOCTYPE svg PUBLIC "-//W3C//DTD SVG 1.1//EN" "http://www.w3.org/Graphics/SVG/1.1/DTD/svg11.dtd">
<svg version="1.1" id="light" xmlns="http://www.w3.org/2000/svg" xmlns:xlink="http://www.w3.org/1999/xlink" x="0px" y="0px"
	 width="50px" height="50px" viewBox="231 231 50 50" enable-background="new 231 231 50 50" xml:space="preserve">
<g>
	<g>
		<path fill="#6F8793" d="M275,274h-38c-2.756,0-5-2.244-5-5v-26c0-2.756,2.244-5,5-5h38c2.756,0,5,2.244,5,5v26
			C280,271.756,277.756,274,275,274z M237,240c-1.654,0-3,1.346-3,3v26c0,1.654,1.346,3,3,3h38c1.654,0,3-1.346,3-3v-26
			c0-1.654-1.346-3-3-3H237z"/>
	</g>
	<g>
		<path fill="#6F8793" d="M247,256c-2.756,0-5-2.244-5-5s2.244-5,5-5s5,2.244,5,5S249.756,256,247,256z M247,248
			c-1.654,0-3,1.346-3,3s1.346,3,3,3s3-1.346,3-3S248.654,248,247,248z"/>
	</g>
	<g>
		<path fill="#6F8793" d="M255,266c-0.552,0-1-0.448-1-1v-2c0-1.654-1.346-3-3-3h-8c-1.654,0-3,1.346-3,3v2c0,0.552-0.448,1-1,1
			s-1-0.448-1-1v-2c0-2.756,2.244-5,5-5h8c2.756,0,5,2.244,5,5v2C256,265.552,255.552,266,255,266z"/>
	</g>
	<g>
		<path fill="#6F8793" d="M273,250h-12c-0.552,0-1-0.448-1-1s0.448-1,1-1h12c0.552,0,1,0.448,1,1S273.552,250,273,250z"/>
	</g>
	<g>
		<path fill="#6F8793" d="M273,258h-12c-0.552,0-1-0.448-1-1s0.448-1,1-1h12c0.552,0,1,0.448,1,1S273.552,258,273,258z"/>
	</g>
	<g>
		<path fill="#6F8793" d="M273,266h-12c-0.552,0-1-0.448-1-1s0.448-1,1-1h12c0.552,0,1,0.448,1,1S273.552,266,273,266z"/>
	</g>
</g>
</svg>
