<?xml version="1.0" encoding="utf-8"?>
<!-- Generator: Adobe Illustrator 13.0.0, SVG Export Plug-In . SVG Version: 6.00 Build 14948)  -->
<!DOCTYPE svg PUBLIC "-//W3C//DTD SVG 1.1//EN" "http://www.w3.org/Graphics/SVG/1.1/DTD/svg11.dtd">
<svg version="1.1" id="Capa_1" xmlns="http://www.w3.org/2000/svg" xmlns:xlink="http://www.w3.org/1999/xlink" x="0px" y="0px"
	 width="50px" height="50px" viewBox="231 231 50 50" enable-background="new 231 231 50 50" xml:space="preserve">
<path fill="#6F8793" d="M256,236c-11.027,0-20,8.973-20,20c0,11.029,8.973,20,20,20s20-8.973,20-20S267.027,236,256,236z
	 M257.301,267.867c-0.949,0.158-2.84,0.554-3.8,0.634c-0.813,0.067-1.58-0.397-2.047-1.065c-0.468-0.668-0.581-1.522-0.304-2.289
	l3.781-10.396H251c-0.003-2.166,1.622-3.759,3.7-4.37c0.991-0.292,2.839-0.691,3.8-0.63c0.576,0.037,1.58,0.397,2.048,1.065
	c0.47,0.668,0.581,1.522,0.302,2.289l-3.779,10.396H261C261,265.664,259.436,267.512,257.301,267.867L257.301,267.867z M258.5,248.5
	c-1.38,0-2.5-1.12-2.5-2.5c0-1.381,1.12-2.5,2.5-2.5c1.381,0,2.5,1.119,2.5,2.5S259.881,248.5,258.5,248.5L258.5,248.5z"/>
</svg>
