<?xml version="1.0" encoding="utf-8"?>
<!-- Generator: Adobe Illustrator 13.0.0, SVG Export Plug-In . SVG Version: 6.00 Build 14948)  -->
<!DOCTYPE svg PUBLIC "-//W3C//DTD SVG 1.1//EN" "http://www.w3.org/Graphics/SVG/1.1/DTD/svg11.dtd">
<svg version="1.1" id="Capa_1" xmlns="http://www.w3.org/2000/svg" xmlns:xlink="http://www.w3.org/1999/xlink" x="0px" y="0px"
	 width="50px" height="50px" viewBox="0 0 50 50" enable-background="new 0 0 50 50" xml:space="preserve">
<g>
	<g>
		<path fill="#0FA5DE" d="M22.019,0C9.878,0,0,9.878,0,22.019s9.878,22.019,22.019,22.019s22.019-9.878,22.019-22.019
			S34.16,0,22.019,0z M22.019,39.973c-9.9,0-17.954-8.054-17.954-17.954S12.119,4.065,22.019,4.065
			c9.899,0,17.954,8.054,17.954,17.954C39.973,31.918,31.918,39.973,22.019,39.973z"/>
	</g>
</g>
<g>
	<g>
		<path fill="#0FA5DE" d="M49.404,46.53L37.752,34.877c-0.795-0.793-2.08-0.793-2.875,0c-0.793,0.794-0.793,2.081,0,2.875
			L46.53,49.404C46.928,49.801,47.447,50,47.967,50c0.521,0,1.041-0.199,1.438-0.596C50.199,48.611,50.199,47.324,49.404,46.53z"/>
	</g>
</g>
</svg>
