<?xml version="1.0" encoding="utf-8"?>
<!-- Generator: Adobe Illustrator 13.0.0, SVG Export Plug-In . SVG Version: 6.00 Build 14948)  -->
<!DOCTYPE svg PUBLIC "-//W3C//DTD SVG 1.1//EN" "http://www.w3.org/Graphics/SVG/1.1/DTD/svg11.dtd">
<svg version="1.1" id="Capa_1" xmlns="http://www.w3.org/2000/svg" xmlns:xlink="http://www.w3.org/1999/xlink" x="0px" y="0px"
	 width="50px" height="50px" viewBox="0 0 50 50" enable-background="new 0 0 50 50" xml:space="preserve">
<g>
	<path fill="#FFFFFF" d="M21.127,23.244V3.874C21.127,1.736,22.863,0,25.001,0s3.874,1.736,3.874,3.874v19.37
		c0,2.138-1.736,3.874-3.874,3.874S21.127,25.382,21.127,23.244z M40.357,5.68c-1.256-0.994-3.086-0.775-4.08,0.481
		c-0.994,1.259-0.777,3.086,0.481,4.082c4.608,3.635,7.25,9.079,7.25,14.938c0,10.48-8.527,19.007-19.006,19.007
		c-10.48,0-19.008-8.527-19.008-19.007c0-5.857,2.64-11.299,7.244-14.932c1.259-0.994,1.475-2.821,0.481-4.082
		c-0.994-1.259-2.819-1.473-4.082-0.481c-6.009,4.742-9.456,11.848-9.456,19.496C0.183,38.867,11.317,50,25.001,50
		s24.817-11.135,24.817-24.818C49.818,17.531,46.369,10.425,40.357,5.68z"/>
</g>
</svg>
