<?xml version="1.0" encoding="utf-8"?>
<!-- Generator: Adobe Illustrator 13.0.0, SVG Export Plug-In . SVG Version: 6.00 Build 14948)  -->
<!DOCTYPE svg PUBLIC "-//W3C//DTD SVG 1.1//EN" "http://www.w3.org/Graphics/SVG/1.1/DTD/svg11.dtd">
<svg version="1.1" id="Layer_1" xmlns="http://www.w3.org/2000/svg" xmlns:xlink="http://www.w3.org/1999/xlink" x="0px" y="0px"
	 width="50px" height="50px" viewBox="231 231 50 50" enable-background="new 231 231 50 50" xml:space="preserve">
<g>
	<path fill="#6F8793" d="M252.133,270.249c-9.998,0-18.133-8.136-18.133-18.133c0-9.999,8.135-18.134,18.133-18.134
		c9.999,0,18.133,8.135,18.133,18.134C270.266,262.113,262.132,270.249,252.133,270.249L252.133,270.249z M252.133,237.42
		c-8.104,0-14.695,6.592-14.695,14.695c0,8.103,6.592,14.695,14.695,14.695s14.695-6.593,14.695-14.695
		C266.828,244.012,260.236,237.42,252.133,237.42L252.133,237.42z M277.496,277.514c0.672-0.672,0.672-1.761,0-2.432l-7.691-7.691
		c-0.67-0.67-1.759-0.67-2.43,0c-0.671,0.672-0.671,1.76,0,2.433l7.689,7.69c0.336,0.336,0.775,0.502,1.217,0.502
		C276.721,278.016,277.161,277.85,277.496,277.514z"/>
</g>
</svg>
