<?xml version="1.0" encoding="utf-8"?>
<!-- Generator: Adobe Illustrator 13.0.0, SVG Export Plug-In . SVG Version: 6.00 Build 14948)  -->
<!DOCTYPE svg PUBLIC "-//W3C//DTD SVG 1.1//EN" "http://www.w3.org/Graphics/SVG/1.1/DTD/svg11.dtd">
<svg version="1.1" id="Layer_1" xmlns="http://www.w3.org/2000/svg" xmlns:xlink="http://www.w3.org/1999/xlink" x="0px" y="0px"
	 width="50px" height="50px" viewBox="0 0 50 50" enable-background="new 0 0 50 50" xml:space="preserve">
<g>
	<g>
		<path fill="#6F8793" d="M44.309,29.501l-3.775-2.952c0.048-0.455,0.089-0.986,0.089-1.551c0-0.563-0.039-1.095-0.089-1.551
			l3.777-2.954c0.703-0.554,0.896-1.539,0.447-2.358l-3.926-6.793c-0.421-0.767-1.339-1.161-2.271-0.816l-4.455,1.788
			c-0.854-0.616-1.75-1.136-2.676-1.552l-0.677-4.726c-0.112-0.896-0.894-1.574-1.815-1.574h-7.873
			c-0.922,0-1.701,0.678-1.811,1.561l-0.679,4.743c-0.897,0.404-1.778,0.917-2.67,1.553l-4.467-1.793
			c-0.837-0.324-1.838,0.039-2.254,0.802l-3.931,6.801C4.789,18.913,4.98,19.932,5.697,20.5l3.775,2.953
			C9.413,24.028,9.384,24.529,9.384,25s0.029,0.973,0.088,1.551l-3.778,2.954c-0.702,0.556-0.892,1.54-0.445,2.358l3.926,6.793
			c0.419,0.766,1.33,1.16,2.271,0.816l4.455-1.789c0.853,0.614,1.748,1.135,2.674,1.553l0.677,4.724
			c0.111,0.899,0.891,1.578,1.814,1.578h7.874c0.922,0,1.703-0.679,1.813-1.562l0.68-4.74c0.896-0.405,1.775-0.918,2.67-1.555
			l4.467,1.795c0.217,0.082,0.439,0.127,0.67,0.127c0.664,0,1.275-0.363,1.585-0.93l3.942-6.828
			C45.205,31.045,45.014,30.061,44.309,29.501z M25.002,31.848c-3.776,0-6.847-3.072-6.847-6.848c0-3.776,3.071-6.846,6.847-6.846
			c3.775,0,6.846,3.071,6.846,6.846C31.848,28.775,28.777,31.848,25.002,31.848z"/>
	</g>
</g>
</svg>
