<?xml version="1.0" encoding="utf-8"?>
<!-- Generator: Adobe Illustrator 13.0.0, SVG Export Plug-In . SVG Version: 6.00 Build 14948)  -->
<!DOCTYPE svg PUBLIC "-//W3C//DTD SVG 1.1//EN" "http://www.w3.org/Graphics/SVG/1.1/DTD/svg11.dtd">
<svg version="1.1" id="Layer_1" xmlns="http://www.w3.org/2000/svg" xmlns:xlink="http://www.w3.org/1999/xlink" x="0px" y="0px"
	 width="50px" height="50px" viewBox="231 184 50 50" enable-background="new 231 184 50 50" xml:space="preserve">
<path fill="#6F8793" d="M48.5,28.896c0,5.265-1.676,10.263-4.846,14.453c-0.627,0.827-1.803,0.987-2.627,0.364
	c-0.826-0.625-0.988-1.801-0.363-2.627c2.674-3.535,4.086-7.75,4.086-12.19c0-11.192-9.064-20.239-20.25-20.239
	c-11.193,0-20.25,9.054-20.25,20.239c0,4.44,1.413,8.655,4.086,12.19c0.625,0.826,0.462,2.002-0.363,2.627
	c-0.826,0.624-2.003,0.461-2.628-0.364C2.175,39.158,0.5,34.16,0.5,28.896c0-13.267,10.742-23.989,24-23.989
	C37.766,4.906,48.5,15.636,48.5,28.896z M36.381,17.603c0.73,0.732,0.73,1.92,0,2.651l-6.111,6.111
	c0.502,0.928,0.789,1.988,0.789,3.115c0,3.617-2.94,6.56-6.558,6.56s-6.559-2.94-6.559-6.56c0-3.615,2.942-6.557,6.559-6.557
	c1.128,0,2.188,0.285,3.117,0.789l6.11-6.112C34.461,16.871,35.646,16.871,36.381,17.603z M27.309,29.48
	c0-1.547-1.26-2.808-2.808-2.808s-2.809,1.261-2.809,2.808c0,1.549,1.261,2.81,2.809,2.81S27.309,31.029,27.309,29.48z"/>
</svg>
