<?xml version="1.0" encoding="utf-8"?>
<!-- Generator: Adobe Illustrator 13.0.0, SVG Export Plug-In . SVG Version: 6.00 Build 14948)  -->
<!DOCTYPE svg PUBLIC "-//W3C//DTD SVG 1.1//EN" "http://www.w3.org/Graphics/SVG/1.1/DTD/svg11.dtd">
<svg version="1.1" id="Layer_1" xmlns="http://www.w3.org/2000/svg" xmlns:xlink="http://www.w3.org/1999/xlink" x="0px" y="0px"
	 width="50px" height="50px" viewBox="231 231 50 50" enable-background="new 231 231 50 50" xml:space="preserve">
<g>
	<path fill="#FFFFFF" d="M256,263.741c-6.981,0-12.662,5.68-12.662,12.661c0,0.404,0.02,0.804,0.057,1.197
		c3.784,2.217,8.103,3.4,12.604,3.4s8.82-1.184,12.604-3.4c0.037-0.395,0.058-0.793,0.058-1.197
		C268.662,269.421,262.981,263.741,256,263.741z"/>
	<path fill="#FFFFFF" d="M273.678,238.322c-4.722-4.722-11-7.322-17.678-7.322c-6.678,0-12.956,2.601-17.678,7.322
		S231,249.322,231,256c0,6.678,2.601,12.956,7.322,17.678c0.672,0.673,1.377,1.3,2.109,1.885c0.328-6.139,4.222-11.346,9.644-13.581
		c-2.98-1.942-4.954-5.305-4.954-9.12c0-5.999,4.88-10.878,10.879-10.878c5.999,0,10.879,4.88,10.879,10.878
		c0,3.815-1.975,7.177-4.954,9.12c5.421,2.235,9.316,7.442,9.644,13.581c0.732-0.585,1.438-1.213,2.109-1.885
		c4.722-4.722,7.322-11,7.322-17.678C281,249.322,278.399,243.044,273.678,238.322z"/>
	<path fill="#FFFFFF" d="M263.949,252.862c0-4.383-3.566-7.949-7.949-7.949c-4.383,0-7.949,3.566-7.949,7.949
		c0,4.383,3.566,7.95,7.949,7.95C260.383,260.812,263.949,257.245,263.949,252.862z"/>
</g>
</svg>
