<?xml version="1.0" encoding="utf-8"?>
<!-- Generator: Adobe Illustrator 13.0.0, SVG Export Plug-In . SVG Version: 6.00 Build 14948)  -->
<!DOCTYPE svg PUBLIC "-//W3C//DTD SVG 1.1//EN" "http://www.w3.org/Graphics/SVG/1.1/DTD/svg11.dtd">
<svg version="1.1" id="Layer_1" xmlns="http://www.w3.org/2000/svg" xmlns:xlink="http://www.w3.org/1999/xlink" x="0px" y="0px"
	 width="50px" height="50px" viewBox="231 231 50 50" enable-background="new 231 231 50 50" xml:space="preserve">
<path fill="#FFFFFF" d="M272.971,239.029C268.438,234.497,262.41,232,256,232c-6.411,0-12.438,2.497-16.971,7.029
	C234.497,243.563,232,249.589,232,256c0,6.41,2.497,12.438,7.029,16.971C243.563,277.504,249.589,280,256,280
	c6.41,0,12.438-2.496,16.971-7.029S280,262.41,280,256C280,249.589,277.504,243.563,272.971,239.029z M244.032,273.474
	c1.004-5.779,6.012-10.042,11.968-10.042s10.965,4.263,11.968,10.042c-3.407,2.341-7.53,3.714-11.968,3.714
	S247.439,275.814,244.032,273.474z M248.369,252.987c0-4.208,3.423-7.631,7.631-7.631s7.631,3.423,7.631,7.631
	c0,4.208-3.423,7.632-7.631,7.632S248.369,257.195,248.369,252.987z M270.404,271.523c-0.757-2.691-2.261-5.132-4.367-7.039
	c-1.293-1.17-2.765-2.094-4.347-2.744c2.859-1.865,4.754-5.092,4.754-8.753c0-5.758-4.686-10.443-10.444-10.443
	s-10.443,4.685-10.443,10.443c0,3.661,1.894,6.888,4.753,8.753c-1.582,0.65-3.054,1.574-4.346,2.744
	c-2.107,1.906-3.611,4.348-4.368,7.038c-4.169-3.872-6.783-9.397-6.783-15.522c0-11.683,9.505-21.188,21.188-21.188
	s21.188,9.505,21.188,21.188C277.188,262.126,274.573,267.651,270.404,271.523z"/>
</svg>
